<svg aria-hidden="true" style="position: absolute; width: 0; height: 0; overflow: hidden;" version="1.1" xmlns="http://www.w3.org/2000/svg" xmlns:xlink="http://www.w3.org/1999/xlink">
<defs>

<symbol id="arrow-down" viewBox="0 0 32 32">
<path  d="M16.001 0.551c-0.609 0-1.103 0.494-1.103 1.103v0 26.026l-6.943-6.945c-0.2-0.2-0.476-0.324-0.781-0.324-0.61 0-1.105 0.495-1.105 1.105 0 0.305 0.124 0.581 0.324 0.781l8.828 8.828c0.2 0.2 0.476 0.324 0.781 0.324s0.581-0.124 0.781-0.324l8.828-8.828c0.199-0.2 0.322-0.476 0.322-0.78 0-0.61-0.493-1.105-1.103-1.107h-0c-0.292 0-0.574 0.117-0.781 0.324l-6.943 6.945v-26.026c0-0.609-0.494-1.103-1.103-1.103v0z"></path>
</symbol>

<symbol id="burger" viewBox="0 0 32 32">
<path  d="M32 8c0 0.552-0.448 1-1 1v0h-30c-0.552 0-1-0.448-1-1s0.448-1 1-1v0h30c0.552 0 1 0.448 1 1v0zM32 24c0 0.552-0.448 1-1 1v0h-30c-0.552 0-1-0.448-1-1s0.448-1 1-1v0h30c0.552 0 1 0.448 1 1v0zM32 15.992c0 0.548-0.444 0.992-0.992 0.992v0h-30.016c-0.548 0-0.992-0.444-0.992-0.992s0.444-0.992 0.992-0.992v0h30.016c0.548 0 0.992 0.444 0.992 0.992z"></path>
</symbol>

<symbol id="close" viewBox="0 0 32 32">
<path  d="M18.518 15.913l12.462-12.462c0.253-0.296 0.408-0.684 0.408-1.108 0-0.944-0.765-1.71-1.71-1.71-0.424 0-0.811 0.154-1.11 0.409l0.002-0.002-12.462 12.462-12.462-12.48c-0.298-0.257-0.688-0.414-1.116-0.414-0.944 0-1.71 0.765-1.71 1.71 0 0.428 0.157 0.819 0.417 1.119l-0.002-0.002 12.462 12.478-12.48 12.462c-0.371 0.316-0.605 0.783-0.605 1.305 0 0.945 0.766 1.711 1.711 1.711 0.523 0 0.99-0.234 1.304-0.604l0.002-0.002 12.478-12.462 12.462 12.462c0.295 0.248 0.679 0.398 1.098 0.398 0.945 0 1.711-0.766 1.711-1.711 0-0.419-0.151-0.803-0.401-1.1l0.002 0.003-12.462-12.462z"></path>
</symbol>

<symbol id="circle" viewBox="0 0 32 32">
<path d="M30.843 16c0 8.198-6.646 14.843-14.843 14.843s-14.843-6.646-14.843-14.843c0-8.198 6.646-14.843 14.843-14.843s14.843 6.646 14.843 14.843z"></path>
</symbol>

<symbol id="left-slider" viewBox="0 0 32 32">
<path  d="M25.2 2.144l-14.087 13.856 14.087 13.856-2.176 2.144-16.224-16.008 16.224-15.992 2.176 2.144z"></path>
</symbol>

<symbol id="play" viewBox="0 0 32 32">
<path  d="M28.552 15.044c0.332 0.194 0.552 0.549 0.552 0.956s-0.22 0.761-0.546 0.953l-0.005 0.003-24 13.856c-0.158 0.093-0.349 0.148-0.552 0.148-0.609 0-1.103-0.494-1.103-1.103v0-27.712c0-0.609 0.494-1.103 1.103-1.103 0.203 0 0.393 0.055 0.557 0.151l-0.005-0.003 24 13.856z"></path>
</symbol>

<symbol id="menu-down" viewBox="0 0 32 32">
<path  d="M17.63 25.055c-0.394 0.464-0.978 0.757-1.63 0.757s-1.236-0.293-1.627-0.754l-0.003-0.003-12.962-15.36c-0.312-0.368-0.501-0.849-0.501-1.374 0-1.178 0.955-2.133 2.133-2.133h25.92c1.178 0 2.133 0.955 2.133 2.133 0 0.526-0.19 1.007-0.506 1.379l0.003-0.003-12.96 15.36z"></path>
</symbol>

<symbol id="menu-up" viewBox="0 0 32 32">
<path  d="M14.371 6.945c0.394-0.464 0.978-0.757 1.63-0.757s1.236 0.293 1.627 0.754l0.003 0.003 12.96 15.36c0.312 0.368 0.501 0.849 0.501 1.374 0 1.177-0.954 2.132-2.131 2.133h-25.92c-1.178-0-2.133-0.955-2.133-2.133 0-0.526 0.19-1.007 0.506-1.379l-0.003 0.003 12.96-15.36z"></path>
</symbol>

<symbol id="right-slider" viewBox="0 0 32 32">
<path  d="M6.8 29.856l14.087-13.856-14.087-13.856 2.176-2.144 16.224 16.008-16.224 15.992-2.176-2.144z"></path>
</symbol>

<symbol id="clip" viewBox="0 0 32 32">
<path  d="M5.727 30.547c-1.354 0-2.556-0.509-3.607-1.524-1.111-1.076-1.665-2.381-1.665-3.916s0.554-2.839 1.665-3.914l17.425-17.889c0.815-0.828 1.861-1.428 3.033-1.694l0.041-0.008c0.419-0.094 0.9-0.149 1.393-0.149 0.765 0 1.5 0.13 2.183 0.369l-0.046-0.014c1.193 0.391 2.294 1.065 3.303 2.023 0.32 0.33 0.614 0.689 0.877 1.072l0.018 0.028c0.272 0.401 0.495 0.822 0.666 1.261 0.335 0.848 0.53 1.831 0.531 2.859v0.001c-0.041 2.073-0.768 3.802-2.182 5.19l-13.183 13.549c-0.165 0.184-0.401 0.301-0.665 0.308l-0.001 0c-0.015 0.001-0.033 0.001-0.051 0.001-0.245 0-0.468-0.096-0.633-0.252l0 0c-0.181-0.163-0.296-0.397-0.301-0.658v-0.001c-0.001-0.014-0.001-0.031-0.001-0.048 0-0.249 0.099-0.475 0.259-0.641l-0 0 13.181-13.549c1.071-1.056 1.616-2.365 1.636-3.929 0.020-1.565-0.495-2.845-1.545-3.843-0.601-0.609-1.315-1.103-2.109-1.449l-0.044-0.017c-0.549-0.234-1.187-0.371-1.858-0.371-0.243 0-0.481 0.018-0.714 0.052l0.026-0.003c-0.909 0.116-1.716 0.518-2.423 1.201l-17.425 17.889c-0.746 0.723-1.12 1.593-1.12 2.609s0.374 1.887 1.12 2.609c0.345 0.333 0.719 0.582 1.123 0.748 0.403 0.167 0.828 0.23 1.271 0.191 0.89-0.038 1.718-0.439 2.486-1.201l13.847-14.252c0.212-0.205 0.402-0.431 0.566-0.675l0.010-0.015c0.186-0.274 0.316-0.602 0.362-0.956l0.001-0.011c0.003-0.030 0.005-0.065 0.005-0.1 0-0.15-0.035-0.293-0.098-0.419l0.002 0.005c-0.093-0.194-0.215-0.359-0.363-0.498l-0.001-0.001c-0.384-0.391-0.756-0.567-1.12-0.528-0.385 0.039-0.819 0.284-1.305 0.733l-10.423 10.733c-0.116 0.113-0.259 0.198-0.417 0.247l-0.007 0.002c-0.084 0.027-0.181 0.042-0.281 0.042-0.255 0-0.487-0.099-0.659-0.261l0.001 0c-0.185-0.152-0.303-0.382-0.303-0.638 0-0.003 0-0.005 0-0.008v0c0-0.255 0.090-0.48 0.272-0.675l10.425-10.764c0.829-0.781 1.667-1.212 2.516-1.289 0.969-0.079 1.857 0.273 2.665 1.055 0.768 0.724 1.105 1.574 1.015 2.551-0.090 0.979-0.58 1.897-1.469 2.758l-13.847 14.281c-1.133 1.095-2.396 1.681-3.789 1.76-0.049 0.001-0.096 0.006-0.141 0.015l0.005-0.001c-0.040 0.009-0.087 0.014-0.135 0.015h-0.001z"></path>
</symbol>

<symbol id="phone" viewBox="0 0 32 32">
<path  d="M27.232 21.084l-3.949-0.453c-0.108-0.014-0.234-0.021-0.361-0.021-0.856 0-1.63 0.348-2.19 0.909l-2.861 2.861c-4.436-2.289-7.961-5.815-10.189-10.12l-0.061-0.131 2.875-2.877c0.667-0.667 0.995-1.6 0.885-2.552l-0.451-3.92c-0.187-1.557-1.499-2.752-3.091-2.752h-2.693c-1.757 0-3.219 1.461-3.109 3.219 0.862 13.291 11.427 23.857 24.639 24.716l0.078 0.004c1.757 0.107 3.219-1.355 3.219-3.112v-2.693c0-0.004 0-0.009 0-0.014 0-1.581-1.191-2.885-2.724-3.062l-0.014-0.001z"></path>
</symbol>

<symbol id="header-down" viewBox="0 0 107 32">
<path d="M53.328 32l-46.187-32h92.373l-46.187 32z"></path>
</symbol>

<symbol id="header-up" viewBox="0 0 107 32">
<path d="M53.328 0l46.187 32h-92.373l46.187-32z"></path>
</symbol>

<symbol id="icon-simple-line-icons_paper-clip" viewBox="0 0 35 32">
<path fill="#cdcdcd" style="fill: var(--color1, #cdcdcd)" d="M6.3 32c-1.489 0-2.811-0.559-3.967-1.677-1.222-1.183-1.833-2.618-1.833-4.306s0.611-3.124 1.833-4.306l19.167-19.677c0.978-0.968 2.106-1.591 3.383-1.871s2.572-0.204 3.883 0.226c1.311 0.43 2.522 1.172 3.633 2.226 0.356 0.366 0.683 0.769 0.983 1.21s0.544 0.903 0.733 1.387c0.189 0.484 0.333 0.995 0.433 1.532s0.15 1.075 0.15 1.613c-0.044 2.28-0.844 4.183-2.4 5.71l-14.5 14.903c-0.2 0.215-0.444 0.328-0.733 0.339s-0.539-0.081-0.75-0.274c-0.211-0.194-0.322-0.436-0.333-0.726s0.083-0.543 0.283-0.758l14.5-14.903c1.178-1.161 1.778-2.602 1.8-4.323s-0.544-3.129-1.7-4.226c-0.711-0.71-1.5-1.247-2.367-1.613s-1.8-0.484-2.8-0.355c-1 0.129-1.889 0.57-2.667 1.323l-19.167 19.677c-0.822 0.796-1.233 1.753-1.233 2.871s0.411 2.075 1.233 2.871c0.378 0.366 0.789 0.64 1.233 0.823s0.911 0.253 1.4 0.21c0.978-0.043 1.889-0.484 2.733-1.323l15.233-15.677c0.111-0.108 0.217-0.22 0.317-0.339s0.206-0.258 0.317-0.419c0.111-0.161 0.2-0.333 0.267-0.516s0.111-0.366 0.133-0.548-0.011-0.371-0.1-0.565c-0.089-0.194-0.222-0.376-0.4-0.548-0.422-0.43-0.833-0.624-1.233-0.581-0.422 0.043-0.9 0.312-1.433 0.806l-11.467 11.806c-0.133 0.129-0.289 0.22-0.467 0.274s-0.361 0.059-0.55 0.016c-0.189-0.043-0.35-0.129-0.483-0.258-0.222-0.194-0.333-0.43-0.333-0.71s0.1-0.527 0.3-0.742l11.467-11.839c0.911-0.86 1.833-1.333 2.767-1.419 1.067-0.086 2.044 0.301 2.933 1.161 0.844 0.796 1.217 1.731 1.117 2.806s-0.639 2.086-1.617 3.032l-15.233 15.71c-1.244 1.204-2.633 1.849-4.167 1.935-0.044 0-0.094 0.005-0.15 0.016s-0.106 0.016-0.15 0.016z"></path>
</symbol>

</defs>
</svg>
